<mxfile host="app.diagrams.net" agent="Mozilla/5.0 (Windows NT 10.0; Win64; x64) AppleWebKit/537.36 (KHTML, like Gecko) Chrome/140.0.0.0 Safari/537.36" version="28.2.3">
  <diagram name="Page-1" id="ZgYYY9OHjk3PjCL5CJHH">
    <mxGraphModel>
      <root>
        <mxCell id="0" />
        <mxCell id="1" parent="0" />
        <mxCell id="2" value="Physical Layer" style="whiteSpace=wrap;strokeWidth=2;" vertex="1" parent="1">
          <mxGeometry x="1908" y="1192" width="358" height="104" as="geometry" />
        </mxCell>
        <mxCell id="3" value="Data Link Layer" style="whiteSpace=wrap;strokeWidth=2;" vertex="1" parent="1">
          <mxGeometry x="1589" y="1038" width="339" height="104" as="geometry" />
        </mxCell>
        <mxCell id="4" value="Network Layer" style="whiteSpace=wrap;strokeWidth=2;" vertex="1" parent="1">
          <mxGeometry x="1390" y="861" width="276" height="104" as="geometry" />
        </mxCell>
        <mxCell id="5" value="Transport Layer" style="whiteSpace=wrap;strokeWidth=2;" vertex="1" parent="1">
          <mxGeometry x="1144" y="684" width="297" height="104" as="geometry" />
        </mxCell>
        <mxCell id="6" value="Session Layer" style="whiteSpace=wrap;strokeWidth=2;" vertex="1" parent="1">
          <mxGeometry x="660" y="489" width="543" height="104" as="geometry" />
        </mxCell>
        <mxCell id="7" value="Presentation Layer" style="whiteSpace=wrap;strokeWidth=2;" vertex="1" parent="1">
          <mxGeometry x="377" y="312" width="407" height="104" as="geometry" />
        </mxCell>
        <mxCell id="8" value="Application Layer" style="whiteSpace=wrap;strokeWidth=2;" vertex="1" parent="1">
          <mxGeometry x="8" y="135" width="452" height="104" as="geometry" />
        </mxCell>
        <mxCell id="9" value="Application Layer" style="whiteSpace=wrap;strokeWidth=2;" vertex="1" parent="1">
          <mxGeometry x="213" y="8" width="185" height="54" as="geometry" />
        </mxCell>
        <mxCell id="10" value="Presentation Layer" style="whiteSpace=wrap;strokeWidth=2;" vertex="1" parent="1">
          <mxGeometry x="576" y="160" width="194" height="54" as="geometry" />
        </mxCell>
        <mxCell id="11" value="Session Layer" style="whiteSpace=wrap;strokeWidth=2;" vertex="1" parent="1">
          <mxGeometry x="987" y="337" width="155" height="54" as="geometry" />
        </mxCell>
        <mxCell id="12" value="Transport Layer" style="whiteSpace=wrap;strokeWidth=2;" vertex="1" parent="1">
          <mxGeometry x="1359" y="514" width="172" height="54" as="geometry" />
        </mxCell>
        <mxCell id="13" value="Network Layer" style="whiteSpace=wrap;strokeWidth=2;" vertex="1" parent="1">
          <mxGeometry x="1644" y="709" width="164" height="54" as="geometry" />
        </mxCell>
        <mxCell id="14" value="Data Link Layer" style="whiteSpace=wrap;strokeWidth=2;" vertex="1" parent="1">
          <mxGeometry x="1896" y="886" width="171" height="54" as="geometry" />
        </mxCell>
        <mxCell id="15" value="Physical Layer" style="whiteSpace=wrap;strokeWidth=2;" vertex="1" parent="1">
          <mxGeometry x="2037" y="1063" width="161" height="54" as="geometry" />
        </mxCell>
        <mxCell id="16" value="HTTP" style="whiteSpace=wrap;strokeWidth=2;" vertex="1" parent="1">
          <mxGeometry x="43" y="160" width="98" height="54" as="geometry" />
        </mxCell>
        <mxCell id="17" value="FTP" style="whiteSpace=wrap;strokeWidth=2;" vertex="1" parent="1">
          <mxGeometry x="191" y="160" width="87" height="54" as="geometry" />
        </mxCell>
        <mxCell id="18" value="SMTP" style="whiteSpace=wrap;strokeWidth=2;" vertex="1" parent="1">
          <mxGeometry x="328" y="160" width="97" height="54" as="geometry" />
        </mxCell>
        <mxCell id="19" value="Encryption" style="whiteSpace=wrap;strokeWidth=2;" vertex="1" parent="1">
          <mxGeometry x="412" y="337" width="137" height="54" as="geometry" />
        </mxCell>
        <mxCell id="20" value="Compression" style="whiteSpace=wrap;strokeWidth=2;" vertex="1" parent="1">
          <mxGeometry x="598" y="337" width="150" height="54" as="geometry" />
        </mxCell>
        <mxCell id="21" value="Session Establishment" style="whiteSpace=wrap;strokeWidth=2;" vertex="1" parent="1">
          <mxGeometry x="695" y="514" width="216" height="54" as="geometry" />
        </mxCell>
        <mxCell id="22" value="Session Maintenance" style="whiteSpace=wrap;strokeWidth=2;" vertex="1" parent="1">
          <mxGeometry x="961" y="514" width="207" height="54" as="geometry" />
        </mxCell>
        <mxCell id="23" value="TCP" style="whiteSpace=wrap;strokeWidth=2;" vertex="1" parent="1">
          <mxGeometry x="1179" y="709" width="88" height="54" as="geometry" />
        </mxCell>
        <mxCell id="24" value="UDP" style="whiteSpace=wrap;strokeWidth=2;" vertex="1" parent="1">
          <mxGeometry x="1317" y="709" width="89" height="54" as="geometry" />
        </mxCell>
        <mxCell id="25" value="IP" style="whiteSpace=wrap;strokeWidth=2;" vertex="1" parent="1">
          <mxGeometry x="1425" y="886" width="73" height="54" as="geometry" />
        </mxCell>
        <mxCell id="26" value="RIP" style="whiteSpace=wrap;strokeWidth=2;" vertex="1" parent="1">
          <mxGeometry x="1548" y="886" width="83" height="54" as="geometry" />
        </mxCell>
        <mxCell id="27" value="Ethernet" style="whiteSpace=wrap;strokeWidth=2;" vertex="1" parent="1">
          <mxGeometry x="1624" y="1063" width="122" height="54" as="geometry" />
        </mxCell>
        <mxCell id="28" value="Wi-Fi" style="whiteSpace=wrap;strokeWidth=2;" vertex="1" parent="1">
          <mxGeometry x="1797" y="1063" width="97" height="54" as="geometry" />
        </mxCell>
        <mxCell id="29" value="Cables" style="whiteSpace=wrap;strokeWidth=2;" vertex="1" parent="1">
          <mxGeometry x="1943" y="1217" width="107" height="54" as="geometry" />
        </mxCell>
        <mxCell id="30" value="Repeaters" style="whiteSpace=wrap;strokeWidth=2;" vertex="1" parent="1">
          <mxGeometry x="2100" y="1217" width="131" height="54" as="geometry" />
        </mxCell>
        <mxCell id="31" value="Interacts with end-user" style="curved=1;startArrow=none;endArrow=block;exitX=1;exitY=0.8;entryX=0.5;entryY=0;" edge="1" parent="1" source="9" target="10">
          <mxGeometry relative="1" as="geometry">
            <Array as="points">
              <mxPoint x="673" y="99" />
            </Array>
          </mxGeometry>
        </mxCell>
        <mxCell id="32" value="Formats data" style="curved=1;startArrow=none;endArrow=block;exitX=1;exitY=0.74;entryX=0.5;entryY=0;" edge="1" parent="1" source="10" target="11">
          <mxGeometry relative="1" as="geometry">
            <Array as="points">
              <mxPoint x="1065" y="239" />
            </Array>
          </mxGeometry>
        </mxCell>
        <mxCell id="33" value="Manages sessions" style="curved=1;startArrow=none;endArrow=block;exitX=1;exitY=0.7;entryX=0.5;entryY=0;" edge="1" parent="1" source="11" target="12">
          <mxGeometry relative="1" as="geometry">
            <Array as="points">
              <mxPoint x="1445" y="416" />
            </Array>
          </mxGeometry>
        </mxCell>
        <mxCell id="34" value="Ensures reliable transmission" style="curved=1;startArrow=none;endArrow=block;exitX=1;exitY=0.79;entryX=0.5;entryY=-0.01;" edge="1" parent="1" source="12" target="13">
          <mxGeometry relative="1" as="geometry">
            <Array as="points">
              <mxPoint x="1727" y="593" />
            </Array>
          </mxGeometry>
        </mxCell>
        <mxCell id="35" value="Routes packets" style="curved=1;startArrow=none;endArrow=block;exitX=1;exitY=0.8;entryX=0.5;entryY=-0.01;" edge="1" parent="1" source="13" target="14">
          <mxGeometry relative="1" as="geometry">
            <Array as="points">
              <mxPoint x="1981" y="788" />
            </Array>
          </mxGeometry>
        </mxCell>
        <mxCell id="36" value="Physical transmission" style="curved=1;startArrow=none;endArrow=block;exitX=0.91;exitY=0.99;entryX=0.5;entryY=-0.01;" edge="1" parent="1" source="14" target="15">
          <mxGeometry relative="1" as="geometry">
            <Array as="points">
              <mxPoint x="2118" y="965" />
            </Array>
          </mxGeometry>
        </mxCell>
        <mxCell id="37" value="" style="curved=1;startArrow=none;endArrow=block;exitX=0.01;exitY=1;entryX=0.5;entryY=0;" edge="1" parent="1" source="9" target="16">
          <mxGeometry relative="1" as="geometry">
            <Array as="points">
              <mxPoint x="92" y="99" />
            </Array>
          </mxGeometry>
        </mxCell>
        <mxCell id="38" value="" style="curved=1;startArrow=none;endArrow=block;exitX=0.34;exitY=1;entryX=0.5;entryY=0;" edge="1" parent="1" source="9" target="17">
          <mxGeometry relative="1" as="geometry">
            <Array as="points">
              <mxPoint x="234" y="99" />
            </Array>
          </mxGeometry>
        </mxCell>
        <mxCell id="39" value="" style="curved=1;startArrow=none;endArrow=block;exitX=0.66;exitY=1;entryX=0.5;entryY=0;" edge="1" parent="1" source="9" target="18">
          <mxGeometry relative="1" as="geometry">
            <Array as="points">
              <mxPoint x="376" y="99" />
            </Array>
          </mxGeometry>
        </mxCell>
        <mxCell id="40" value="" style="curved=1;startArrow=none;endArrow=block;exitX=0;exitY=0.98;entryX=0.5;entryY=0;" edge="1" parent="1" source="10" target="19">
          <mxGeometry relative="1" as="geometry">
            <Array as="points">
              <mxPoint x="480" y="239" />
            </Array>
          </mxGeometry>
        </mxCell>
        <mxCell id="41" value="" style="curved=1;startArrow=none;endArrow=block;exitX=0.5;exitY=1;entryX=0.5;entryY=0;" edge="1" parent="1" source="10" target="20">
          <mxGeometry relative="1" as="geometry">
            <Array as="points" />
          </mxGeometry>
        </mxCell>
        <mxCell id="42" value="" style="curved=1;startArrow=none;endArrow=block;exitX=0;exitY=0.79;entryX=0.5;entryY=0;" edge="1" parent="1" source="11" target="21">
          <mxGeometry relative="1" as="geometry">
            <Array as="points">
              <mxPoint x="803" y="416" />
            </Array>
          </mxGeometry>
        </mxCell>
        <mxCell id="43" value="" style="curved=1;startArrow=none;endArrow=block;exitX=0.5;exitY=1;entryX=0.5;entryY=0;" edge="1" parent="1" source="11" target="22">
          <mxGeometry relative="1" as="geometry">
            <Array as="points" />
          </mxGeometry>
        </mxCell>
        <mxCell id="44" value="" style="curved=1;startArrow=none;endArrow=block;exitX=0;exitY=0.87;entryX=0.5;entryY=-0.01;" edge="1" parent="1" source="12" target="23">
          <mxGeometry relative="1" as="geometry">
            <Array as="points">
              <mxPoint x="1223" y="593" />
            </Array>
          </mxGeometry>
        </mxCell>
        <mxCell id="45" value="" style="curved=1;startArrow=none;endArrow=block;exitX=0.25;exitY=1;entryX=0.5;entryY=-0.01;" edge="1" parent="1" source="12" target="24">
          <mxGeometry relative="1" as="geometry">
            <Array as="points">
              <mxPoint x="1362" y="593" />
            </Array>
          </mxGeometry>
        </mxCell>
        <mxCell id="46" value="" style="curved=1;startArrow=none;endArrow=block;exitX=0;exitY=0.79;entryX=0.5;entryY=-0.01;" edge="1" parent="1" source="13" target="25">
          <mxGeometry relative="1" as="geometry">
            <Array as="points">
              <mxPoint x="1461" y="788" />
            </Array>
          </mxGeometry>
        </mxCell>
        <mxCell id="47" value="" style="curved=1;startArrow=none;endArrow=block;exitX=0.07;exitY=0.99;entryX=0.5;entryY=-0.01;" edge="1" parent="1" source="13" target="26">
          <mxGeometry relative="1" as="geometry">
            <Array as="points">
              <mxPoint x="1589" y="788" />
            </Array>
          </mxGeometry>
        </mxCell>
        <mxCell id="48" value="" style="curved=1;startArrow=none;endArrow=block;exitX=0;exitY=0.77;entryX=0.5;entryY=-0.01;" edge="1" parent="1" source="14" target="27">
          <mxGeometry relative="1" as="geometry">
            <Array as="points">
              <mxPoint x="1686" y="965" />
            </Array>
          </mxGeometry>
        </mxCell>
        <mxCell id="49" value="" style="curved=1;startArrow=none;endArrow=block;exitX=0.09;exitY=0.99;entryX=0.5;entryY=-0.01;" edge="1" parent="1" source="14" target="28">
          <mxGeometry relative="1" as="geometry">
            <Array as="points">
              <mxPoint x="1845" y="965" />
            </Array>
          </mxGeometry>
        </mxCell>
        <mxCell id="50" value="" style="curved=1;startArrow=none;endArrow=block;exitX=0.11;exitY=0.99;entryX=0.5;entryY=-0.01;" edge="1" parent="1" source="15" target="29">
          <mxGeometry relative="1" as="geometry">
            <Array as="points">
              <mxPoint x="1996" y="1142" />
            </Array>
          </mxGeometry>
        </mxCell>
        <mxCell id="51" value="" style="curved=1;startArrow=none;endArrow=block;exitX=0.65;exitY=0.99;entryX=0.5;entryY=-0.01;" edge="1" parent="1" source="15" target="30">
          <mxGeometry relative="1" as="geometry">
            <Array as="points">
              <mxPoint x="2165" y="1142" />
            </Array>
          </mxGeometry>
        </mxCell>
      </root>
    </mxGraphModel>
  </diagram>
</mxfile>
